<mxfile host="65bd71144e">
    <diagram id="n-4woIhvtgBI2bBugt-I" name="Página-1">
        <mxGraphModel dx="4117" dy="1108" grid="1" gridSize="10" guides="1" tooltips="1" connect="1" arrows="1" fold="1" page="1" pageScale="1" pageWidth="827" pageHeight="1169" math="0" shadow="0">
            <root>
                <mxCell id="0"/>
                <mxCell id="1" parent="0"/>
                <mxCell id="5" value="" style="edgeStyle=none;html=1;fontSize=25;strokeWidth=4;fillColor=#0050ef;strokeColor=#F0F0F0;dashed=1;" parent="1" source="3" target="4" edge="1">
                    <mxGeometry relative="1" as="geometry"/>
                </mxCell>
                <mxCell id="3" value="INICIO" style="ellipse;whiteSpace=wrap;html=1;fontSize=25;strokeWidth=4;strokeColor=#F0F0F0;dashed=1;" parent="1" vertex="1">
                    <mxGeometry x="105" y="9" width="345" height="140" as="geometry"/>
                </mxCell>
                <mxCell id="14" value="" style="edgeStyle=none;html=1;fontSize=25;strokeWidth=4;fillColor=#0050ef;strokeColor=#F0F0F0;dashed=1;" parent="1" source="4" target="13" edge="1">
                    <mxGeometry relative="1" as="geometry"/>
                </mxCell>
                <mxCell id="4" value="Nombre&lt;br style=&quot;font-size: 25px;&quot;&gt;Edad (años)&lt;br style=&quot;font-size: 25px;&quot;&gt;Peso (kilogramos)&lt;br style=&quot;font-size: 25px;&quot;&gt;Estatura (centimetros)" style="shape=parallelogram;perimeter=parallelogramPerimeter;whiteSpace=wrap;html=1;fixedSize=1;fontSize=25;size=47.5;strokeWidth=4;strokeColor=#F0F0F0;dashed=1;" parent="1" vertex="1">
                    <mxGeometry x="88.75" y="300" width="377.5" height="170" as="geometry"/>
                </mxCell>
                <mxCell id="17" value="NO" style="edgeStyle=none;html=1;fontSize=25;strokeWidth=4;fillColor=#0050ef;strokeColor=#F0F0F0;dashed=1;entryX=0.5;entryY=0;entryDx=0;entryDy=0;" parent="1" source="8" target="11" edge="1">
                    <mxGeometry relative="1" as="geometry"/>
                </mxCell>
                <mxCell id="53" value="SI" style="edgeStyle=none;html=1;fontSize=31;" edge="1" parent="1" source="8" target="52">
                    <mxGeometry relative="1" as="geometry">
                        <Array as="points">
                            <mxPoint x="500" y="1059"/>
                        </Array>
                    </mxGeometry>
                </mxCell>
                <mxCell id="8" value="Edad&lt;br style=&quot;font-size: 25px;&quot;&gt;&lt;br style=&quot;font-size: 25px;&quot;&gt;Ecuela Primaria&lt;br style=&quot;font-size: 25px;&quot;&gt;&amp;gt; 5 y &amp;lt;= 11&amp;nbsp;" style="rhombus;whiteSpace=wrap;html=1;fillColor=#0050ef;fontColor=#ffffff;strokeColor=#F0F0F0;fontSize=25;strokeWidth=4;dashed=1;" parent="1" vertex="1">
                    <mxGeometry x="828" y="949" width="290" height="220" as="geometry"/>
                </mxCell>
                <mxCell id="18" value="NO" style="edgeStyle=none;html=1;fontSize=25;strokeWidth=4;fillColor=#0050ef;strokeColor=#F0F0F0;dashed=1;" parent="1" source="11" target="12" edge="1">
                    <mxGeometry relative="1" as="geometry"/>
                </mxCell>
                <mxCell id="61" value="" style="edgeStyle=none;html=1;fontSize=31;" edge="1" parent="1" source="11" target="60">
                    <mxGeometry relative="1" as="geometry"/>
                </mxCell>
                <mxCell id="11" value="Edad&lt;br style=&quot;font-size: 25px&quot;&gt;&lt;br style=&quot;font-size: 25px&quot;&gt;Adolescentes&lt;br style=&quot;font-size: 25px&quot;&gt;&amp;gt; 11 &amp;lt;= 19" style="rhombus;whiteSpace=wrap;html=1;fillColor=#0050ef;fontColor=#ffffff;strokeColor=#F0F0F0;fontSize=25;strokeWidth=4;dashed=1;" parent="1" vertex="1">
                    <mxGeometry x="1950" y="1190" width="280" height="240" as="geometry"/>
                </mxCell>
                <mxCell id="65" value="" style="edgeStyle=none;html=1;fontSize=31;entryX=0.5;entryY=0;entryDx=0;entryDy=0;" edge="1" parent="1" source="12" target="66">
                    <mxGeometry relative="1" as="geometry">
                        <mxPoint x="2896.5833696801483" y="1321.0072231033573" as="targetPoint"/>
                    </mxGeometry>
                </mxCell>
                <mxCell id="12" value="Edad&lt;br style=&quot;font-size: 25px&quot;&gt;&lt;br style=&quot;font-size: 25px&quot;&gt;Adulto Joven&lt;br style=&quot;font-size: 25px&quot;&gt;&amp;gt; 19 &amp;lt;= 26" style="rhombus;whiteSpace=wrap;html=1;fillColor=#0050ef;fontColor=#ffffff;strokeColor=#F0F0F0;fontSize=25;strokeWidth=4;dashed=1;" parent="1" vertex="1">
                    <mxGeometry x="2794" y="834" width="330" height="260" as="geometry"/>
                </mxCell>
                <mxCell id="19" value="NO" style="edgeStyle=none;html=1;exitX=1;exitY=0.5;exitDx=0;exitDy=0;fontSize=25;strokeWidth=4;fillColor=#0050ef;strokeColor=#F0F0F0;dashed=1;endArrow=classic;endFill=1;" parent="1" source="13" target="8" edge="1">
                    <mxGeometry relative="1" as="geometry">
                        <mxPoint x="459.99727272727273" y="180.00272727272736" as="sourcePoint"/>
                        <Array as="points">
                            <mxPoint x="973" y="720"/>
                        </Array>
                    </mxGeometry>
                </mxCell>
                <mxCell id="21" value="SI" style="edgeStyle=none;html=1;fontSize=25;strokeWidth=4;fillColor=#0050ef;strokeColor=#F0F0F0;dashed=1;exitX=0;exitY=0.5;exitDx=0;exitDy=0;" parent="1" source="13" target="20" edge="1">
                    <mxGeometry relative="1" as="geometry">
                        <mxPoint x="-541.7499999999995" y="710" as="sourcePoint"/>
                        <Array as="points">
                            <mxPoint x="-1015" y="710"/>
                        </Array>
                    </mxGeometry>
                </mxCell>
                <mxCell id="13" value="Edad&lt;br style=&quot;font-size: 25px;&quot;&gt;&lt;br style=&quot;font-size: 25px;&quot;&gt;Preescolar&lt;br style=&quot;font-size: 25px;&quot;&gt;&amp;gt;= 3 y &amp;lt;= 5" style="rhombus;whiteSpace=wrap;html=1;fillColor=#0050ef;fontColor=#ffffff;strokeColor=#F0F0F0;fontSize=25;strokeWidth=4;dashed=1;" parent="1" vertex="1">
                    <mxGeometry x="121.25" y="590" width="312.5" height="250" as="geometry"/>
                </mxCell>
                <mxCell id="30" value="&lt;span style=&quot;background-color: rgb(42 , 42 , 42)&quot;&gt;NO&lt;/span&gt;" style="edgeStyle=none;html=1;dashed=1;labelBackgroundColor=none;fontSize=25;fontColor=#F0F0F0;endArrow=classic;endFill=1;strokeColor=#F0F0F0;strokeWidth=4;exitX=0;exitY=0.5;exitDx=0;exitDy=0;" parent="1" source="20" target="29" edge="1">
                    <mxGeometry relative="1" as="geometry">
                        <mxPoint x="-1142" y="1070" as="sourcePoint"/>
                        <Array as="points">
                            <mxPoint x="-627" y="945"/>
                        </Array>
                    </mxGeometry>
                </mxCell>
                <mxCell id="51" value="&lt;font style=&quot;font-size: 31px&quot;&gt;SI&lt;/font&gt;" style="edgeStyle=none;html=1;" parent="1" source="20" target="50" edge="1">
                    <mxGeometry relative="1" as="geometry">
                        <Array as="points">
                            <mxPoint x="-1510" y="960"/>
                        </Array>
                    </mxGeometry>
                </mxCell>
                <mxCell id="20" value="Peso&amp;nbsp;&lt;br style=&quot;font-size: 25px;&quot;&gt;&lt;br style=&quot;font-size: 25px;&quot;&gt;&amp;gt;= 14 y &amp;lt;= 16" style="rhombus;whiteSpace=wrap;html=1;fillColor=#1ba1e2;fontColor=#ffffff;strokeColor=#F0F0F0;fontSize=25;direction=west;strokeWidth=4;dashed=1;" parent="1" vertex="1">
                    <mxGeometry x="-1171" y="810" width="310" height="270" as="geometry"/>
                </mxCell>
                <mxCell id="32" value="NO" style="edgeStyle=none;html=1;dashed=1;labelBackgroundColor=none;fontSize=25;fontColor=#F0F0F0;endArrow=classic;endFill=1;strokeColor=#F0F0F0;strokeWidth=4;entryX=0.5;entryY=0;entryDx=0;entryDy=0;" parent="1" source="29" target="34" edge="1">
                    <mxGeometry relative="1" as="geometry">
                        <mxPoint x="-309.8429867411023" y="1530.8618283321703" as="targetPoint"/>
                        <Array as="points">
                            <mxPoint x="-240" y="1355"/>
                        </Array>
                    </mxGeometry>
                </mxCell>
                <mxCell id="57" value="" style="edgeStyle=none;html=1;fontSize=31;" edge="1" parent="1" source="29" target="56">
                    <mxGeometry relative="1" as="geometry"/>
                </mxCell>
                <mxCell id="29" value="Peso&amp;nbsp;&lt;br&gt;&lt;br&gt;&amp;gt; 16 y &amp;lt;= 18" style="rhombus;whiteSpace=wrap;html=1;fontSize=25;fillColor=#1ba1e2;strokeColor=#F0F0F0;fontColor=#ffffff;strokeWidth=4;dashed=1;" parent="1" vertex="1">
                    <mxGeometry x="-775" y="1225" width="300" height="240" as="geometry"/>
                </mxCell>
                <mxCell id="34" value="print(&quot;Verifica tus datos, no coincide tu edad con tu peso y altura.&quot;)" style="rounded=1;whiteSpace=wrap;html=1;dashed=1;fontSize=25;fontColor=#ffffff;strokeColor=#FFFFFF;strokeWidth=4;arcSize=0;fillColor=#a20025;" parent="1" vertex="1">
                    <mxGeometry x="-385" y="1525" width="290" height="170" as="geometry"/>
                </mxCell>
                <mxCell id="50" value="Estatura&lt;br&gt;&lt;br&gt;&amp;gt;=97 y &amp;lt; 102" style="rhombus;whiteSpace=wrap;html=1;fontSize=25;fillColor=#1ba1e2;strokeColor=#F0F0F0;fontColor=#ffffff;strokeWidth=4;dashed=1;" parent="1" vertex="1">
                    <mxGeometry x="-1680" y="1050" width="350" height="282.5" as="geometry"/>
                </mxCell>
                <mxCell id="59" value="" style="edgeStyle=none;html=1;fontSize=31;" edge="1" parent="1" source="52" target="58">
                    <mxGeometry relative="1" as="geometry"/>
                </mxCell>
                <mxCell id="52" value="Peso&lt;br&gt;&lt;br&gt;&amp;gt;18 y &amp;lt;= 40" style="rhombus;whiteSpace=wrap;html=1;fontSize=25;fillColor=#1ba1e2;strokeColor=#006EAF;fontColor=#ffffff;strokeWidth=4;dashed=1;" vertex="1" parent="1">
                    <mxGeometry x="340" y="1230" width="316.25" height="250" as="geometry"/>
                </mxCell>
                <mxCell id="56" value="Estatura&amp;nbsp;&lt;br&gt;&lt;br&gt;&amp;gt;102 y &amp;lt;=109" style="rhombus;whiteSpace=wrap;html=1;fontSize=25;fillColor=#1ba1e2;strokeColor=#F0F0F0;fontColor=#ffffff;strokeWidth=4;dashed=1;" vertex="1" parent="1">
                    <mxGeometry x="-1260" y="1410" width="300" height="240" as="geometry"/>
                </mxCell>
                <mxCell id="58" value="Estatura&lt;br&gt;&lt;br&gt;&amp;gt;109 y &amp;lt;=140" style="rhombus;whiteSpace=wrap;html=1;fontSize=25;fillColor=#1ba1e2;strokeColor=#006EAF;fontColor=#ffffff;strokeWidth=4;dashed=1;" vertex="1" parent="1">
                    <mxGeometry x="30" y="1380" width="310" height="290" as="geometry"/>
                </mxCell>
                <mxCell id="63" value="" style="edgeStyle=none;html=1;fontSize=31;" edge="1" parent="1" source="60" target="62">
                    <mxGeometry relative="1" as="geometry"/>
                </mxCell>
                <mxCell id="60" value="Peso&lt;br&gt;&lt;br&gt;40 &amp;gt; y &amp;lt;= 70" style="rhombus;whiteSpace=wrap;html=1;fontSize=25;fillColor=#0050ef;strokeColor=#F0F0F0;fontColor=#ffffff;strokeWidth=4;dashed=1;" vertex="1" parent="1">
                    <mxGeometry x="1730" y="1540" width="400" height="410" as="geometry"/>
                </mxCell>
                <mxCell id="62" value="Estatura&lt;br&gt;&lt;br&gt;&amp;gt;140 y &amp;lt;= 170" style="rhombus;whiteSpace=wrap;html=1;fontSize=25;fillColor=#0050ef;strokeColor=#F0F0F0;fontColor=#ffffff;strokeWidth=4;dashed=1;" vertex="1" parent="1">
                    <mxGeometry x="1260" y="1615.5" width="340" height="255" as="geometry"/>
                </mxCell>
                <mxCell id="68" value="" style="edgeStyle=none;html=1;fontSize=31;entryX=0.5;entryY=0;entryDx=0;entryDy=0;" edge="1" parent="1" source="66" target="69">
                    <mxGeometry relative="1" as="geometry">
                        <mxPoint x="2532.2954743255004" y="1735.3013489991295" as="targetPoint"/>
                        <Array as="points">
                            <mxPoint x="2520" y="1515"/>
                        </Array>
                    </mxGeometry>
                </mxCell>
                <mxCell id="66" value="Peso&lt;br&gt;&lt;br&gt;70 &amp;gt; y &amp;lt;= 180" style="rhombus;whiteSpace=wrap;html=1;fontSize=25;fillColor=#0050ef;strokeColor=#F0F0F0;fontColor=#ffffff;strokeWidth=4;dashed=1;" vertex="1" parent="1">
                    <mxGeometry x="2630" y="1310" width="400" height="410" as="geometry"/>
                </mxCell>
                <mxCell id="69" value="Estatura&lt;br&gt;&lt;br&gt;&amp;gt;170 y &amp;lt;= 180" style="rhombus;whiteSpace=wrap;html=1;fontSize=25;fillColor=#0050ef;strokeColor=#F0F0F0;fontColor=#ffffff;strokeWidth=4;dashed=1;" vertex="1" parent="1">
                    <mxGeometry x="2350" y="1710" width="340" height="255" as="geometry"/>
                </mxCell>
            </root>
        </mxGraphModel>
    </diagram>
</mxfile>